# xmcd
# 
# Track frame offsets:
#     150
#     21926
#     40754
#     57522
#     74981
#     91578
#     109819
#     133496
#     151362
#     168639
#     186691
#     203094
#     224192
#     241177
#     258001
#     278351
# 
# Disc length: 4003
# 
# Revision: 1
# Processed by: cddbd v1.5.2PL0 Copyright (c) Steve Scherf et al.
# Submitted via: fre:ac v1.0.31
# 
DISCID=f60fa110
DTITLE=Emmanuel - Historias De Toda La Vida... Los Exitos
DYEAR=2006
DGENRE=Pop
TTITLE0=Toda La Vida (Tutta La Vita)
TTITLE1=Pobre Diablo
TTITLE2=Esta Aventura
TTITLE3=Detenedla Ya
TTITLE4=Insoportáblemente Bella
TTITLE5=Vamos A Amarnos Despacio
TTITLE6=Todo Se Derrumbó Dentro De Mí
TTITLE7=Esa Triste Guitarra
TTITLE8=Tengo Mucho Que Aprender De Tí
TTITLE9=Quiero Dormir Cansado
TTITLE10=Es Mi Mujer
TTITLE11=Bella Señora
TTITLE12=Magdalena
TTITLE13=Este Terco Corazón
TTITLE14=Hay Que Arrimar El Alma
TTITLE15=No He Podido Verte
EXTD=
EXTT0=
EXTT1=
EXTT2=
EXTT3=
EXTT4=
EXTT5=
EXTT6=
EXTT7=
EXTT8=
EXTT9=
EXTT10=
EXTT11=
EXTT12=
EXTT13=
EXTT14=
EXTT15=
PLAYORDER=
